<?xml version="1.0" encoding="UTF-8" standalone="no"?>
<svg
   version="1.1"
   id="Layer_1"
   x="0px"
   y="0px"
   viewBox="0 0 2654.285 189.531"
   enable-background="new 0 0 2654.285 189.531"
   xml:space="preserve"
   sodipodi:docname="vintage_decor.svg"
   inkscape:version="1.2.1 (9c6d41e, 2022-07-14)"
   xmlns:inkscape="http://www.inkscape.org/namespaces/inkscape"
   xmlns:sodipodi="http://sodipodi.sourceforge.net/DTD/sodipodi-0.dtd"
   xmlns="http://www.w3.org/2000/svg"
   xmlns:svg="http://www.w3.org/2000/svg"><defs
   id="defs48" /><sodipodi:namedview
   id="namedview46"
   pagecolor="#505050"
   bordercolor="#eeeeee"
   borderopacity="1"
   inkscape:showpageshadow="0"
   inkscape:pageopacity="0"
   inkscape:pagecheckerboard="0"
   inkscape:deskcolor="#505050"
   showgrid="false"
   inkscape:zoom="0.45548991"
   inkscape:cx="992.33811"
   inkscape:cy="90.012971"
   inkscape:window-width="1309"
   inkscape:window-height="456"
   inkscape:window-x="0"
   inkscape:window-y="38"
   inkscape:window-maximized="0"
   inkscape:current-layer="Layer_1" />
<path
   d="m 664.41524,45.133 c 35.49125,-7.489 110.29255,0.096 164.69227,-2.184 26.04323,-1.092 52.0398,-4.697 78.10688,-0.704 65.02874,9.962 79.5056,35.174 103.38171,37.477 8.5968,-42.721 22.5563,-36.894 39.277,-36.553 19.094,0.802 27.3217,23.585 23.4509,39.124 -19.683,11.997 -5.5337,-7.578 -21.4156,-23.723 -35.0081,-1.743 -24.5999,28.405 -18.4916,34.396 24.2266,23.764 89.6597,40.525 103.0095,-4.258 -7.6262,0.802 -15.3385,4.037 -23.0218,2.378 -54.0741,-35.806 53.0704,-86.14 51.8626,6.442 -0.1473,11.298 87.4159,-94.179 155.9928,-44.998 24.8612,17.83 26.4217,-25.406 87.3859,-8.365 47.2473,13.207 68.7076,45.508 89.6141,50.349 2.3206,-19.024 0.8627,-39.235 27.809,-48.553 43.2056,-8.455 61.8228,58.376 -0.1721,40.258 -1.8954,30.916 47.4164,46.817 85.0332,23.253 8.5149,-5.364 19.3803,-9.511 23.1648,-19.438 5.4468,-10.949 1.6342,-27.733 -11.3817,-31.604 -10.0059,-1.051 -10.8945,11.779 -17.0297,16.894 -4.6731,0.221 -11.3248,0.636 -13.4171,-4.452 -0.532,-20.284 23.564,-33.084 42.0287,-25.615 24.995,10.111 14.0942,31.15 21.3876,40.103 1.656,2.033 47.6113,-21.374 52.7895,-23.341 98.5468,-37.432 268.5946,-18.215 368.9642,16.65 18.2334,8.018 38.3882,12.608 58.5141,12.028 12.4238,0.964 2.027,-23.56 -19.2943,-21.622 -8.1136,0.636 -16.083,2.184 -24.1395,2.903 0.6594,-3.373 1.5481,-6.691 2.6379,-9.954 12.2703,-6.995 27.838,-4.396 40.9679,-1.134 13.1591,3.622 17.6031,16.728 24.1686,26.737 35.0703,7.087 29.1031,-29.343 61.0866,-11.894 34.9438,19.063 428.6011,6.431 431.4691,7.398 8.7503,2.95 2.9116,13.223 2.5331,19.371 0.1722,-2.795 -340.4189,-3.692 -387.121,-3.041 -36.4088,0.507 -37.0247,7.006 -50.8939,15.197 -24.0587,14.208 -43.7728,-28.904 -62.8659,-8.809 -33.4154,35.167 -98.2492,24.781 -141.9919,2.131 -17.3501,-8.984 -36.1217,-18.681 -56.3418,-19.412 0.9861,16.785 8.7305,35.522 -8.8757,47.336 -28.1325,18.877 -52.8247,-18.338 -29.9294,-42.053 4.105,-4.252 11.8567,-6.225 11.6835,-12.997 -36.3259,-38.529 -102.6891,-11.592 -114.1331,5.642 56.9908,-4.548 62.3007,61.85 7.7797,55.016 -15.9917,-2.005 -14.0456,-15.589 -1.5885,-14.174 3.8032,0.432 7.5163,1.926 11.3289,1.583 8.7875,-0.791 13.5841,-11.919 9.8296,-19.621 -18.5612,-38.079 -91.4577,31.727 -225.4792,39.911 -48.7871,2.979 -42.3637,-1.284 -73.8826,-11.204 -56.1012,-16.415 -125.5502,-110.669 -184.4583,-78.525 -4.0137,2.35 -4.0428,7.355 -5.4466,11.198 1.1695,-3.199 36.4327,23.534 39.0985,26.698 10.7431,12.75 20.5197,23.726 39.5796,22.567 -12.738,-34.566 12.1729,-37.162 21.9351,-32.684 31.5739,14.483 9.139,87.828 -82.7811,42.755 -33.177,11.61 -20.2709,23.71 -68.8061,-0.664 -85.4407,48.732 -111.5793,-20.542 -84.354,-39.249 9.984,-6.86 30.1648,-4.207 29.4411,15.308 -0.1182,3.182 -3.7525,9.924 -2.9416,12.569 1.8415,5.979 19.4756,9.939 39.4728,-21.585 9.1369,-14.404 17.5854,-21.457 35.2673,-23.449 -0.6264,-4.935 1.941,-10.318 -26.9568,-16.57 -36.0687,-7.803 -62.8347,11.688 -86.5729,29.814 -91.297,77.738 -137.0201,75.104 -258.54622,38.215 -28.92677,-8.781 -56.87059,-21.556 -86.74715,-27.045 -29.64845,-4.24 -41.61711,20.004 -36.37882,27.438 8.23385,11.683 29.90975,-10.661 33.73997,2.706 2.95406,10.31 -22.34884,26.645 -43.00549,12.121 -15.49716,-10.897 -15.00464,-32.045 3.60833,-43.619 16.55374,-10.293 34.82142,-6.145 33.46518,-14.158 -0.3909,-2.31 -2.98412,-3.53 -5.24762,-4.377 -24.25566,-9.071 -58.76809,-27.929 -99.39705,9.245 -1.17583,6.138 4.61617,10.645 6.82368,15.926 15.9119,31.766 -16.26445,49.136 -32.16702,39.622 -16.39924,-12.525 -16.45626,-37.576 -2.40867,-51.843 -37.33066,-8.272 -41.06757,6.125 -98.96985,26.278 -100.05133,34.823 -108.55889,-8.109 -115.21875,-15.55 -14.87918,-1.327 -30.33175,3.512 -41.42737,13.189 -5.07447,3.76 -10.66531,10.286 -17.8322,7.217 -5.84902,-5.751 -9.3464,-14.986 -18.77886,-16.009 C 391.06661,101.661 10.472812,107 5.2614716,101.881 -29.80258,67.387 400.31141,93.753 432.01908,84.145 c 11.63583,-3.524 12.87283,-29.164 33.51393,-10.133 8.97416,8.275 19.79501,9.631 31.25353,13.314 1.22766,0.395 15.25349,-16.97 17.33969,-19.012 32.97681,-32.272 47.86428,-7.309 35.24446,1.043 -3.26616,2.162 -7.32242,2.79 -11.16508,3.722 -8.32302,2.018 -9.11415,4.979 -10.80114,12.201 43.498,-1.581 64.13702,-26.068 137.01077,-40.147 m -83.65726,41.336 c -16.91457,6.138 -35.37823,6.912 -52.09164,13.521 -1.66315,7.272 8.74398,7.88 13.64633,10.341 30.27472,7.023 59.45968,-7.88 86.35211,-19.41 20.38396,-7.327 41.22621,-14.267 62.87204,-17.005 13.38815,0.138 26.43309,5.06 39.96536,4.12 8.65792,-3.954 16.68543,-9.069 25.34335,-13.023 0.029,-3.069 0.057,-6.138 0.057,-9.207 -20.6131,-0.47 -41.25524,0.028 -61.83931,0.415 -39.24888,5.308 -77.23589,17.059 -114.30526,30.248 m 262.5817,-30.663 c 0.37224,1.548 1.11775,4.673 1.462,6.221 11.38179,1.825 22.47637,4.977 33.08465,9.346 43.95009,15.788 84.57387,39.373 129.72879,52.092 26.0599,9.207 53.8979,14.433 81.6499,10.313 8.5719,-1.88 19.7816,-1.078 24.885,-9.401 -11.0375,-0.47 -21.8169,2.184 -32.7404,2.71 -24.5117,-2.599 -45.326,-16.23 -66.6275,-26.958 C 999.10034,93.604 985.28185,83.622 969.42698,77.484 930.49434,59.566 886.37213,50.939 843.33968,55.806 m 869.05182,18.94 c -23.0788,7.935 -44.3514,19.769 -65.9962,30.608 -14.9942,9.705 -31.3645,17.115 -48.5372,22.452 -0.057,1.106 -0.1721,3.346 -0.2291,4.452 10.9235,3.982 22.9357,3.097 34.1454,0.802 23.0497,-5.419 46.5018,-10.452 67.7453,-21.069 39.6782,-15.539 77.9513,-34.313 117.9457,-49.106 0.1152,-1.825 0.3443,-5.475 0.4583,-7.3 -36.1527,-2.544 -72.7918,4.258 -105.5322,19.161 m 217.1696,-18.774 c 0.4303,13.604 16.055,21.981 29.0129,20.903 43.1475,1.714 81.3346,22.894 121.7874,34.811 17.631,5.502 37.9299,5.226 53.9268,-4.617 -1.8923,-2.765 -2.982,-7.189 -7.1389,-7.3 -14.3918,-2.765 -29.2709,-3.373 -43.2616,-7.825 -28.0672,-9.539 -55.8762,-20.046 -85.1472,-25.825 -22.4494,-6.691 -45.9575,-7.935 -69.1794,-10.147 m 266.6525,42.331 c 5.4187,0.995 12.2414,5.253 17.0296,0.442 6.4225,-3.594 -0.2861,-12.138 -5.5048,-12.691 -7.0808,-0.58 -9.7476,7.079 -11.5248,12.249 M 451.94785,89.538 c -0.85957,0.636 -2.60878,1.853 -3.46938,2.461 -4.84533,12.415 18.11941,13.244 18.74983,2.295 -3.92769,-3.816 -9.60459,-7.161 -15.28045,-4.756 M 1925.2031,103.28 c -0.8886,5.723 -0.086,11.502 0.4583,17.226 3.5264,-0.332 7.5692,0.94 10.8085,-0.94 7.311,-5.917 4.0136,-16.092 4.5301,-24.055 -6.4224,-0.277 -12.4996,2.35 -15.7969,7.769 M 727.28729,100.156 c -0.94564,7.88 0.34424,15.733 2.3506,23.364 3.2392,-0.138 6.47944,-0.276 9.74767,-0.442 0.85957,-8.738 0.91764,-24.609 -12.09827,-22.922 z"
   id="path41"
   style="fill:#ffffff;fill-opacity:1;stroke-width:1.01827" />
<path
   d="M1177.511,84.665C1178.081,85.235,1178.081,85.235,1177.511,84.665z"
   id="path43" />
</svg>
