<svg version="1.1" xmlns="http://www.w3.org/2000/svg" xmlns:xlink="http://www.w3.org/1999/xlink" viewBox="0 0 172 172"><g fill="none" fill-rule="nonzero" stroke="none" stroke-width="1" stroke-linecap="butt" stroke-linejoin="miter" stroke-miterlimit="10" stroke-dasharray="" stroke-dashoffset="0" font-family="none" font-weight="none" font-size="none" text-anchor="none" style="mix-blend-mode: normal"><path d="M0,172v-172h172v172z" fill="none"></path><g fill="#eed7c5"><path d="M86,14.33333c-1.91435,0.00025 -3.74903,0.76638 -5.09506,2.1276l-72.28255,63.07226c-0.9155,0.67554 -1.45577,1.74571 -1.45573,2.88347c0,1.97902 1.60431,3.58333 3.58333,3.58333h17.91667v57.33333c0,3.956 3.21067,7.16667 7.16667,7.16667h28.66667c3.956,0 7.16667,-3.21067 7.16667,-7.16667v-43h28.66667v43c0,3.956 3.21067,7.16667 7.16667,7.16667h28.66667c3.956,0 7.16667,-3.21067 7.16667,-7.16667v-57.33333h17.91667c1.97902,0 3.58333,-1.60431 3.58333,-3.58333c0.00004,-1.13776 -0.54023,-2.20792 -1.45573,-2.88347l-72.24056,-63.03027c-0.01394,-0.01406 -0.02794,-0.02805 -0.04199,-0.04199c-1.34603,-1.36123 -3.18071,-2.12736 -5.09506,-2.1276z"></path></g></g></svg>