<?xml version="1.0" standalone="yes"?>
<svg xmlns="http://www.w3.org/2000/svg" width="835" height="37">
<path style="fill:#010101; stroke:none;" d="M0 0L0 18C41.0398 4.99048 88.7327 18.6363 130.999 14.9414C135.398 14.5568 137.976 9.70096 142.039 9.74768C146.947 9.80411 150.594 16.2597 155.91 13.8789C160.276 11.9236 165.563 1.29496 171.663 5.07022C176.653 8.15906 167.816 13.0024 166 15L210 1.46373L267 1L242 0L188 0L0 0z"/>
<path style="fill:#ffffff; stroke:none;" d="M166 15C168.212 13.2814 177.081 8.71402 172.392 5.03086C164.942 -0.821331 158.873 15.2411 151.999 13.7076C148.434 12.912 145.836 9.46257 142.039 9.37577C138.295 9.29017 136.257 13.1838 132.985 14.3974C128.891 15.916 123.305 15 119 15C94.6081 15 70.3773 14 46 14C34.6906 14 23.2313 13.9422 12 15.2855C9.11348 15.6307 2.81947 15.5314 1.17593 18.4552C-1.39967 23.0372 11.1175 22 13 22L56 22C79.4597 22 103.612 20.3277 127 22.0903C132.347 22.4932 136.09 27.1269 141 27.4552C146.127 27.7981 149.686 21.8912 154.957 21.9985C158.719 22.0751 160.324 26.1869 163.104 28.1103C166.414 30.3999 171.059 31.0218 175 30.946C192.326 30.6129 206.185 17.7684 223 17C221.723 23.8763 223.708 43.4132 235.427 33.2577C241.158 28.2923 235.1 21.906 236.661 16.5147C240.137 4.51094 259.504 11.2227 266 15C261.719 16.1198 256.881 16.883 253.804 20.3904C248.698 26.2116 252.611 34.4174 260 35.4236C269.626 36.7343 272.873 24.9287 260 29C259.574 17.3749 272.967 20.7909 280 23.0285C303.433 30.484 329.229 43.2284 354 33.5363C364.321 29.4982 371.778 21.7435 381 16C377.2 22.7857 377.501 31.7883 386.004 34.9676C394.664 38.2055 400.886 32.2399 409 32.0833C412.537 32.0151 415.522 34.4176 419 34.7438C423.319 35.149 426.773 31.9822 431 32.1512C441.882 32.5865 465.956 40.6275 461 19C482.291 35.8969 503.477 40.6803 530 33.8449C541.058 30.9951 551.269 26.9065 562 23.179C565.586 21.9335 571.273 19.4216 574.833 21.8326C580.993 26.0048 572.504 28.8862 569 29L569 34C586.536 37.2441 590.409 18.6529 573 15C582.258 7.5325 597.247 5.5665 605 16C586.336 25.2076 614.681 44.8131 615.941 24.9992C616.116 22.247 615.632 19.6555 615 17L649 29.8156L669 28.517L680 22.2755L693 26.7338L710 21.0401L835 22L835 14C788.219 14 741.155 18.1668 695 10.409C689.474 9.48015 686.117 16.0297 681.185 15.1181C678.123 14.5519 676.79 10.5048 674.621 8.65278C669.484 4.2672 657.643 3.94231 657 12C663.458 10.801 667.587 10.6444 672 16C656.829 15.9983 642.84 8.43584 628 5.44907C591.947 -1.80705 552.927 -3.03386 520 15C519.783 4.8252 504.955 -7.16244 500.068 7.03858C496.236 18.1727 513.274 4.11199 512.338 14.0046C510.859 29.6393 485.796 28.0735 480 17C505.434 21.5086 480.392 -13.0419 471.287 9.00463C470.212 11.6077 470.065 14.2292 470 17C458.486 11.2644 450.634 1.61574 437 0.173611C430.005 -0.566303 424.323 5.02647 418 4.28858C413.463 3.75906 409.75 0.481251 405 0.0933647C390.112 -1.12239 377.4 8.42792 367 18C366.372 14.6685 366.073 11.035 364.428 8.01543C354.197 -10.7644 331.772 17.7256 355 18C348.549 26.6813 326.901 27.2706 324.122 13.99C323.458 10.8169 326.504 7.36541 329.574 9.66204C331.734 11.2774 332.29 14.5771 333 17C347.229 11.7682 326.204 -9.18521 318.573 6.01775C317.461 8.23111 317.213 10.5817 317 13L291 1.88734L243 1L209 1.46373L166 15z"/>
<path style="fill:#010101; stroke:none;" d="M283 0L283 1L317 13C317.369 10.5471 317.789 8.19155 319.09 6.01775C326.909 -7.05643 345.754 9.83931 333 17C332.451 14.3844 332.071 10.6193 329.574 9.04707C325.541 6.50688 322.762 11.487 323.938 14.9606C327.765 26.2737 349.748 28.6771 355 18C333.715 17.3092 352.762 -9.58919 363.852 8.01543C365.756 11.0383 366.159 14.5971 367 18C376.356 11.8124 384.5 3.04996 396 1L362 0L283 0M408 0L408 1C417.196 3.69904 419.808 4.82087 429 1L408 0M439 0L439 1L470 17C470.144 14.1849 470.468 11.5837 471.724 9.00463C481.366 -10.8043 503.933 19.5122 480 17C484.434 29.9271 509.545 28.8188 512.522 14.9969C515.261 2.28022 498.808 17.0629 500.327 7.99537C501.403 1.57375 510.199 -0.10955 514.892 3.00926C519.005 5.74281 519.791 10.4353 520 15C527.149 12.1828 533.617 7.81955 541 5.56944C564.559 -1.611 591.923 -0.350819 616 3.43904C634.806 6.39919 653.143 16 672 16C668.653 10.0347 663.043 10.5613 657 12C659.769 -4.96166 676.509 14.9095 681.185 15.5486C686.451 16.2683 689.489 9.67371 695 10.6921C740.779 19.152 788.552 14 835 14L835 0L439 0M167 21C180.773 29.2507 201.006 13.5445 215 11.3256C223.948 9.90677 228.506 13.1921 237 8L223 6.96065L183 16.3302L167 21M266 6L266 7C291.306 15.6394 314.526 31 342 31C317.519 19.987 293.658 6 266 6M381 16C389.863 15.0695 391.976 18.5217 392 27L413 11C405.811 0.504593 386.937 8.0091 381 16M426 8C429.38 14.6152 441.553 25.0045 449 26C447.681 20.24 448.823 16.2773 455 15C447.502 6.82519 436.26 4.26048 426 8M504 31C521.049 30.8589 536.66 22.0324 552 15.5756C557.403 13.3013 566.507 10.7481 570 6C552.103 6.04938 536.704 12.8811 521 20.7531C515.754 23.3826 507.48 26.2532 504 31M607 7C611.685 12.9097 618.202 11.9935 625 13.5139C635.323 15.8226 644.772 20.9534 655 23.5208C659.753 24.7139 665.77 25.2626 669 21L607 7M573 15C589.837 19.9304 586.036 36.1061 569 34L569 29C576.06 28.9166 581.364 20.9043 571.995 20.5285C564.841 20.2416 557.459 24.866 551 27.294C539.06 31.7821 525.823 35.7353 513 36L513 37L835 37L835 22L709 21.0401L693 26.4475L681 21.6968L669 28.081L650 29.8156L615 17C615.486 19.6156 616.14 22.3202 615.852 24.9992C614.039 41.8782 588.49 28.3037 605 16C599.645 5.11343 580.144 6.81965 573 15M223 17L176 30.8156L163.104 27.429L154.957 21.6157L142 26.956L130 22.3048L103 22L36 22L0 21L0 37L328 37L328 36C309.318 35.1979 292.771 25.7892 275 21.375C268.567 19.777 258.26 19.6411 260 29C272.353 26.2196 268.527 36.4604 260 35.091C253.307 34.0162 249.395 26.6965 253.805 21.213C256.861 17.413 261.645 16.5134 266 15C259.793 9.87649 240.084 4.92989 236.417 16.1744C234.701 21.439 240.284 26.2426 236.106 31.7716C232.439 36.6246 225.155 35.4152 222.858 29.9807C221.139 25.9137 222.472 21.1762 223 17M343 36L343 37L493 37L493 36L461 19C462.041 25.418 459.56 31.7384 452.999 34.2577C444.656 37.4616 437.87 31.332 430 31.716C426.456 31.889 423.582 34.5697 420 34.5741C415.771 34.5792 412.339 31.2032 408 31.7392C399.419 32.7992 376.939 42.0504 378.575 23.0015C378.783 20.5744 380.095 18.2241 381 16C367.265 21.8068 358.876 33.8604 343 36M141 18L145 20L141 18M692 17L693 20L694 20L695 17L692 17M606 26L608 26L609 20C606.059 21.6201 605.501 22.6858 606 26M229 21L229 27L231 27L229 21M345 29L346 30L345 29z"/>
</svg>
